<svg width="868" height="492" viewBox="0 0 868 492" fill="none" xmlns="http://www.w3.org/2000/svg">
<path fill-rule="evenodd" clip-rule="evenodd" d="M280.411 29.7056C280.411 39.4843 272.484 47.4117 262.706 47.4117C252.927 47.4117 245 39.4843 245 29.7056C245 19.9269 252.927 12 262.706 12C272.484 12 280.411 19.9269 280.411 29.7056Z" fill="#7266FD" fill-opacity="0.1"/>
<path fill-rule="evenodd" clip-rule="evenodd" d="M781.693 244.171C781.693 253.95 773.766 261.877 763.987 261.877C754.209 261.877 746.282 253.95 746.282 244.171C746.282 234.392 754.209 226.466 763.987 226.466C773.766 226.466 781.693 234.392 781.693 244.171Z" fill="#7266FD" fill-opacity="0.08"/>
<path fill-rule="evenodd" clip-rule="evenodd" d="M853.411 47.7056C853.411 57.4843 845.484 65.4117 835.705 65.4117C825.927 65.4117 818 57.4843 818 47.7056C818 37.9269 825.927 30 835.705 30C845.484 30 853.411 37.9269 853.411 47.7056Z" fill="#7266FD" fill-opacity="0.08"/>
<mask id="mask0" mask-type="alpha" maskUnits="userSpaceOnUse" x="48" y="201" width="36" height="37">
<path fill-rule="evenodd" clip-rule="evenodd" d="M48.3171 201.761H83.7283V237.173H48.3171V201.761Z" fill="white"/>
</mask>
<g mask="url(#mask0)">
<path fill-rule="evenodd" clip-rule="evenodd" d="M82 219.5C82 228.613 74.6125 236 65.5002 236C56.3875 236 49 228.613 49 219.5C49 210.387 56.3875 203 65.5002 203C74.6125 203 82 210.387 82 219.5Z" fill="#7266FD" fill-opacity="0.12"/>
</g>
<path fill-rule="evenodd" clip-rule="evenodd" d="M429.626 348.746C429.626 349.594 429.568 350.427 429.452 351.241C428.343 359.127 422.031 365.347 414.096 366.321C413.384 366.407 412.658 366.451 411.921 366.451C402.141 366.451 394.217 358.527 394.217 348.746C394.217 344.61 395.631 340.807 398.005 337.794C401.24 333.696 406.239 331.061 411.863 331.041H411.921C421.702 331.041 429.626 338.966 429.626 348.746Z" fill="#C3E4FF"/>
<path fill-rule="evenodd" clip-rule="evenodd" d="M429.452 351.241C428.342 359.127 422.031 365.347 414.096 366.321C413.82 365.299 413.675 364.223 413.675 363.114C413.675 356.293 419.207 350.757 426.032 350.757C427.219 350.757 428.367 350.926 429.452 351.241Z" fill="#D6EEFF"/>
<path fill-rule="evenodd" clip-rule="evenodd" d="M411.921 332.01C411.921 333.439 411.553 334.786 410.909 335.953C410.105 337.401 408.874 338.583 407.382 339.32C406.292 339.862 405.062 340.167 403.764 340.167C401.516 340.167 399.482 339.257 398.004 337.794C401.24 333.696 406.239 331.06 411.863 331.041C411.902 331.356 411.921 331.681 411.921 332.01Z" fill="#D6EEFF"/>
<path fill-rule="evenodd" clip-rule="evenodd" d="M413.676 339.082C413.676 340.822 412.265 342.233 410.524 342.233C408.783 342.233 407.372 340.822 407.372 339.082C407.372 337.341 408.783 335.93 410.524 335.93C412.265 335.93 413.676 337.341 413.676 339.082Z" fill="#D6EEFF"/>
<mask id="mask1" mask-type="alpha" maskUnits="userSpaceOnUse" x="237" y="184" width="239" height="119">
<path fill-rule="evenodd" clip-rule="evenodd" d="M237.85 211.084L464.961 302.121L475.783 275.124L248.672 184.087L237.85 211.084Z" fill="white"/>
</mask>
<g mask="url(#mask1)">
<path fill-rule="evenodd" clip-rule="evenodd" d="M237.85 211.084L464.961 302.121L475.783 275.124L248.672 184.087L237.85 211.084Z" fill="url(#paint0_linear)"/>
</g>
<mask id="mask2" mask-type="alpha" maskUnits="userSpaceOnUse" x="398" y="180" width="199" height="99">
<path fill-rule="evenodd" clip-rule="evenodd" d="M398.741 202.735L587.832 278.532L596.678 256.464L407.587 180.667L398.741 202.735Z" fill="white"/>
</mask>
<g mask="url(#mask2)">
<path fill-rule="evenodd" clip-rule="evenodd" d="M398.741 202.735L587.832 278.532L596.678 256.464L407.587 180.667L398.741 202.735Z" fill="url(#paint1_linear)"/>
</g>
<path fill-rule="evenodd" clip-rule="evenodd" d="M603.289 271.921C600.846 278.014 593.926 280.974 587.832 278.532C581.738 276.089 578.778 269.169 581.221 263.075C583.664 256.981 590.584 254.021 596.678 256.464C602.772 258.906 605.732 265.827 603.289 271.921Z" fill="#D6EEFF"/>
<path fill-rule="evenodd" clip-rule="evenodd" d="M483.871 294.033C480.882 301.488 472.416 305.109 464.961 302.121C457.506 299.133 453.886 290.667 456.874 283.212C459.862 275.757 468.328 272.136 475.783 275.124C483.237 278.112 486.859 286.578 483.871 294.033Z" fill="#D6EEFF"/>
<path fill-rule="evenodd" clip-rule="evenodd" d="M478.144 291.738C476.424 296.031 471.549 298.116 467.256 296.395C462.963 294.675 460.879 289.8 462.599 285.507C464.32 281.214 469.194 279.129 473.488 280.85C477.78 282.571 479.865 287.445 478.144 291.738Z" fill="#AAD5FF"/>
<path fill-rule="evenodd" clip-rule="evenodd" d="M598.189 269.876C596.875 273.153 593.154 274.745 589.877 273.431C586.6 272.118 585.008 268.396 586.322 265.119C587.635 261.842 591.357 260.25 594.634 261.564C597.911 262.878 599.502 266.599 598.189 269.876Z" fill="#AAD5FF"/>
<path fill-rule="evenodd" clip-rule="evenodd" d="M245.59 267.695C242.241 267.695 239.525 275.935 239.525 286.097C239.525 275.935 236.809 267.695 233.459 267.695C236.809 267.695 239.525 259.455 239.525 249.293C239.525 259.455 242.241 267.695 245.59 267.695Z" fill="#D6EEFF"/>
<path fill-rule="evenodd" clip-rule="evenodd" d="M136.183 307.11C136.183 309.526 134.225 311.485 131.809 311.485C129.393 311.485 127.434 309.526 127.434 307.11C127.434 304.695 129.393 302.736 131.809 302.736C134.225 302.736 136.183 304.695 136.183 307.11Z" fill="#7266FD" fill-opacity="0.12"/>
<path fill-rule="evenodd" clip-rule="evenodd" d="M333.912 296.998C333.912 299.414 331.953 301.373 329.537 301.373C327.121 301.373 325.163 299.414 325.163 296.998C325.163 294.583 327.121 292.624 329.537 292.624C331.953 292.624 333.912 294.583 333.912 296.998Z" fill="#C3E4FF"/>
<path fill-rule="evenodd" clip-rule="evenodd" d="M294.568 153.981C294.568 158.068 291.255 161.381 287.168 161.381C283.081 161.381 279.768 158.068 279.768 153.981C279.768 149.894 283.081 146.582 287.168 146.582C291.255 146.582 294.568 149.894 294.568 153.981Z" fill="#AAD5FF"/>
<path fill-rule="evenodd" clip-rule="evenodd" d="M350.744 44.4453C350.744 46.8611 348.785 48.8195 346.37 48.8195C343.954 48.8195 341.995 46.8611 341.995 44.4453C341.995 42.0296 343.954 40.0711 346.37 40.0711C348.785 40.0711 350.744 42.0296 350.744 44.4453Z" fill="#7266FD" fill-opacity="0.14"/>
<path fill-rule="evenodd" clip-rule="evenodd" d="M237.749 101.374C237.749 103.79 235.79 105.748 233.375 105.748C230.958 105.748 229 103.79 229 101.374C229 98.9585 230.958 97 233.375 97C235.79 97 237.749 98.9585 237.749 101.374Z" fill="#7266FD" fill-opacity="0.14"/>
<path fill-rule="evenodd" clip-rule="evenodd" d="M8.74878 27.1784C8.74878 29.5941 6.79035 31.5526 4.37463 31.5526C1.95844 31.5526 0 29.5941 0 27.1784C0 24.7626 1.95844 22.8037 4.37463 22.8037C6.79035 22.8037 8.74878 24.7626 8.74878 27.1784Z" fill="#7266FD" fill-opacity="0.14"/>
<path fill-rule="evenodd" clip-rule="evenodd" d="M773.749 14.3742C773.749 16.7899 771.79 18.7484 769.375 18.7484C766.958 18.7484 765 16.7899 765 14.3742C765 11.9585 766.958 10 769.375 10C771.79 10 773.749 11.9585 773.749 14.3742Z" fill="#7266FD" fill-opacity="0.06"/>
<path fill-rule="evenodd" clip-rule="evenodd" d="M867.363 109.438C867.363 111.854 865.405 113.812 862.989 113.812C860.573 113.812 858.615 111.854 858.615 109.438C858.615 107.023 860.573 105.064 862.989 105.064C865.405 105.064 867.363 107.023 867.363 109.438Z" fill="#F0F0FF"/>
<path fill-rule="evenodd" clip-rule="evenodd" d="M630.565 169.446C630.565 171.862 628.606 173.82 626.191 173.82C623.774 173.82 621.816 171.862 621.816 169.446C621.816 167.03 623.774 165.072 626.191 165.072C628.606 165.072 630.565 167.03 630.565 169.446Z" fill="#D6EEFF"/>
<path fill-rule="evenodd" clip-rule="evenodd" d="M644.649 42.8038C644.649 45.2201 642.69 47.1785 640.275 47.1785C637.858 47.1785 635.9 45.2201 635.9 42.8038C635.9 40.3881 637.858 38.4296 640.275 38.4296C642.69 38.4296 644.649 40.3881 644.649 42.8038Z" fill="#7266FD" fill-opacity="0.14"/>
<path fill-rule="evenodd" clip-rule="evenodd" d="M504.749 69.3742C504.749 71.7904 502.79 73.7489 500.375 73.7489C497.958 73.7489 496 71.7904 496 69.3742C496 66.9585 497.958 65 500.375 65C502.79 65 504.749 66.9585 504.749 69.3742Z" fill="#7266FD" fill-opacity="0.14"/>
<path fill-rule="evenodd" clip-rule="evenodd" d="M831.958 310.908C831.958 313.323 830 315.282 827.584 315.282C825.168 315.282 823.209 313.323 823.209 310.908C823.209 308.492 825.168 306.533 827.584 306.533C830 306.533 831.958 308.492 831.958 310.908Z" fill="#7266FD" fill-opacity="0.14"/>
<path fill-rule="evenodd" clip-rule="evenodd" d="M442.525 22.0338C438.515 22.0338 435.263 31.8997 435.263 44.0671C435.263 31.8997 432.012 22.0338 428 22.0338C432.012 22.0338 435.263 12.1678 435.263 0C435.263 12.1678 438.515 22.0338 442.525 22.0338Z" fill="#7266FD" fill-opacity="0.13"/>
<path fill-rule="evenodd" clip-rule="evenodd" d="M653.437 315.282C648.584 315.282 644.649 327.219 644.649 341.942C644.649 327.219 640.716 315.282 635.862 315.282C640.716 315.282 644.649 303.344 644.649 288.622C644.649 303.344 648.584 315.282 653.437 315.282Z" fill="#E8F6FF"/>
<path fill-rule="evenodd" clip-rule="evenodd" d="M306.753 366.452C302.293 366.452 298.675 377.427 298.675 390.963C298.675 377.427 295.058 366.452 290.596 366.452C295.058 366.452 298.675 355.477 298.675 341.941C298.675 355.477 302.293 366.452 306.753 366.452Z" fill="#D6EEFF"/>
<path fill-rule="evenodd" clip-rule="evenodd" d="M852.99 216.826C849.186 216.826 846.101 226.184 846.101 237.726C846.101 226.184 843.017 216.826 839.212 216.826C843.017 216.826 846.101 207.468 846.101 195.926C846.101 207.468 849.186 216.826 852.99 216.826Z" fill="#7266FD" fill-opacity="0.06"/>
<path fill-rule="evenodd" clip-rule="evenodd" d="M510.379 381.401C510.379 383.468 508.704 385.143 506.637 385.143C504.571 385.143 502.895 383.468 502.895 381.401C502.895 379.334 504.571 377.658 506.637 377.658C508.704 377.658 510.379 379.334 510.379 381.401Z" fill="#D6EEFF"/>
<path fill-rule="evenodd" clip-rule="evenodd" d="M461.154 120.039C461.154 122.965 458.781 125.338 455.854 125.338C452.927 125.338 450.554 122.965 450.554 120.039C450.554 117.112 452.927 114.739 455.854 114.739C458.781 114.739 461.154 117.112 461.154 120.039Z" fill="#7266FD" fill-opacity="0.14"/>
<path fill-rule="evenodd" clip-rule="evenodd" d="M378.163 93.4888C378.163 95.2937 376.699 96.7566 374.895 96.7566C373.09 96.7566 371.627 95.2937 371.627 93.4888C371.627 91.6839 373.09 90.2209 374.895 90.2209C376.699 90.2209 378.163 91.6839 378.163 93.4888Z" fill="#7266FD" fill-opacity="0.28"/>
<path fill-rule="evenodd" clip-rule="evenodd" d="M553.176 21.5884C553.176 26.8839 548.884 31.1768 543.588 31.1768C538.292 31.1768 534 26.8839 534 21.5884C534 16.2928 538.292 12 543.588 12C548.884 12 553.176 16.2928 553.176 21.5884Z" fill="#7266FD" fill-opacity="0.1"/>
<path fill-rule="evenodd" clip-rule="evenodd" d="M766.351 385.143C766.351 387.81 764.189 389.972 761.522 389.972C758.855 389.972 756.693 387.81 756.693 385.143C756.693 382.476 758.855 380.314 761.522 380.314C764.189 380.314 766.351 382.476 766.351 385.143Z" fill="#7266FD" fill-opacity="0.06"/>
<path fill-rule="evenodd" clip-rule="evenodd" d="M213.027 374.622C213.027 376.299 211.667 377.659 209.99 377.659C208.314 377.659 206.954 376.299 206.954 374.622C206.954 372.945 208.314 371.585 209.99 371.585C211.667 371.585 213.027 372.945 213.027 374.622Z" fill="#7266FD" fill-opacity="0.12"/>
<path fill-rule="evenodd" clip-rule="evenodd" d="M539.45 184.485C539.45 186.162 538.091 187.521 536.414 187.521C534.738 187.521 533.378 186.162 533.378 184.485C533.378 182.808 534.738 181.448 536.414 181.448C538.091 181.448 539.45 182.808 539.45 184.485Z" fill="#AAD5FF"/>
<path fill-rule="evenodd" clip-rule="evenodd" d="M406.65 216.826C406.65 218.503 405.291 219.862 403.614 219.862C401.937 219.862 400.577 218.503 400.577 216.826C400.577 215.149 401.937 213.79 403.614 213.79C405.291 213.79 406.65 215.149 406.65 216.826Z" fill="#D6EEFF"/>
<path fill-rule="evenodd" clip-rule="evenodd" d="M305.448 164.611C305.448 166.288 304.089 167.648 302.412 167.648C300.735 167.648 299.375 166.288 299.375 164.611C299.375 162.934 300.735 161.575 302.412 161.575C304.089 161.575 305.448 162.934 305.448 164.611Z" fill="#D6EEFF"/>
<path fill-rule="evenodd" clip-rule="evenodd" d="M69.0589 329.183C69.0589 330.86 67.6992 332.219 66.0227 332.219C64.3457 332.219 62.986 330.86 62.986 329.183C62.986 327.506 64.3457 326.146 66.0227 326.146C67.6992 326.146 69.0589 327.506 69.0589 329.183Z" fill="#7266FD" fill-opacity="0.12"/>
<path fill-rule="evenodd" clip-rule="evenodd" d="M274.138 216.826C274.138 218.503 272.778 219.862 271.101 219.862C269.424 219.862 268.065 218.503 268.065 216.826C268.065 215.149 269.424 213.79 271.101 213.79C272.778 213.79 274.138 215.149 274.138 216.826Z" fill="#D6EEFF"/>
<path fill-rule="evenodd" clip-rule="evenodd" d="M164.373 207.686C164.373 209.722 162.722 211.373 160.686 211.373C158.65 211.373 157 209.722 157 207.686C157 205.65 158.65 204 160.686 204C162.722 204 164.373 205.65 164.373 207.686Z" fill="#7266FD" fill-opacity="0.12"/>
<mask id="mask3" mask-type="alpha" maskUnits="userSpaceOnUse" x="32" y="7" width="155" height="154">
<path fill-rule="evenodd" clip-rule="evenodd" d="M32.5889 7H186.422V160.835H32.5889V7Z" fill="white"/>
</mask>
<g mask="url(#mask3)">
<path fill-rule="evenodd" clip-rule="evenodd" d="M99.7201 160.201C141.85 165.606 180.384 135.833 185.789 93.7028C191.193 51.5724 161.421 13.0377 119.291 7.6332C77.161 2.22914 38.6268 32.0014 33.2224 74.1318C27.8179 116.262 57.5902 154.797 99.7201 160.201Z" fill="#E3E7FE"/>
</g>
<path fill-rule="evenodd" clip-rule="evenodd" d="M136.888 51.4665C143.267 52.2847 149.103 47.7763 149.921 41.3967C150.74 35.017 146.231 29.1813 139.851 28.3632C133.472 27.5445 127.636 32.0529 126.818 38.433C125.999 44.8127 130.508 50.6484 136.888 51.4665Z" fill="#F1F3FF"/>
<path fill-rule="evenodd" clip-rule="evenodd" d="M137.736 69.2742C140.279 69.6002 142.606 67.803 142.933 65.2594C143.259 62.7163 141.461 60.3897 138.918 60.0637C136.374 59.7376 134.048 61.5343 133.722 64.0779C133.396 66.6216 135.193 68.9477 137.736 69.2742Z" fill="#F1F3FF"/>
<path fill-rule="evenodd" clip-rule="evenodd" d="M85.7997 130.534C88.3428 130.86 90.6694 129.062 90.9959 126.519C91.3219 123.976 89.5243 121.65 86.9812 121.323C84.4376 120.997 82.1115 122.794 81.785 125.337C81.459 127.881 83.2566 130.208 85.7997 130.534Z" fill="#F1F3FF"/>
<path fill-rule="evenodd" clip-rule="evenodd" d="M61.2146 96.7367C85.2347 116.279 104.624 86.4479 104.624 86.4479C71.4103 96.6141 62.2198 64.7798 100.81 52.1484C124.744 44.3131 122.009 22.6499 116.478 7.32803C75.459 3.56515 38.5064 32.9382 33.222 74.1337C31.4932 87.6109 33.362 100.719 38.0878 112.495C39.6994 110.25 40.9366 108.069 41.5673 106.309C44.3715 98.498 43.627 82.4278 61.2146 96.7367Z" fill="#D5DAFB"/>
<path fill-rule="evenodd" clip-rule="evenodd" d="M99.7198 160.204C141.852 165.608 180.385 135.833 185.789 93.705C187.3 81.9237 186.06 70.4244 182.571 59.8526C180.064 63.9803 175.098 67.8948 165.72 62.7266C149.718 53.9148 146.45 78.5861 159.421 87.2357C166.74 92.1161 173.201 101.055 164.156 107.567C154.22 114.722 137.189 83.2234 121.429 94.7988C100.265 110.345 137.378 133.701 123.215 140.674C114.362 145.033 108.015 132.806 108.015 132.806C108.015 132.806 88.6676 150.821 71.1454 135.797C65.3161 130.798 57.2392 130.218 52.99 136.085C64.8186 148.913 81.0587 157.81 99.7198 160.204Z" fill="#D5DAFB"/>
<path fill-rule="evenodd" clip-rule="evenodd" d="M783.958 133.127C776.729 175.173 736.784 203.399 694.738 196.171C652.692 188.942 624.466 148.997 631.695 106.95C638.923 64.9034 678.868 36.678 720.914 43.9063C762.96 51.1346 791.186 91.0799 783.958 133.127Z" fill="#D5DAFB"/>
<path fill-rule="evenodd" clip-rule="evenodd" d="M785.065 118.241C768.485 121.525 727.306 127.178 695 110.912C664.677 95.6382 661.654 80.8444 647.021 72.3721C649.447 69.2767 652.102 66.3848 654.955 63.7206C670.301 64.4617 695.678 68.802 721.284 86.7638C743.024 102.018 766.387 104.905 783.467 104.275C784.416 108.824 784.959 113.493 785.065 118.241Z" fill="#E3E7FE"/>
<path fill-rule="evenodd" clip-rule="evenodd" d="M683.326 124.044C682.193 124.494 661.185 132.516 630.565 120.488C630.546 116.027 630.91 111.503 631.694 106.949C632.6 101.664 634.029 96.6021 635.908 91.7968C646.817 103.549 671.633 128.307 683.326 124.044Z" fill="#E3E7FE"/>
<path fill-rule="evenodd" clip-rule="evenodd" d="M779.911 147.843C776.758 156.049 772.277 163.499 766.769 169.985C747.476 162.84 710.85 151.718 683.375 158.011C667.951 161.542 653.734 161.774 642.181 160.757C638.354 154.595 635.385 147.891 633.409 140.829C649.97 140.606 681.529 139.162 707.827 132.051C734.809 124.756 760.86 140.567 779.911 147.843Z" fill="#E3E7FE"/>
<path fill-rule="evenodd" clip-rule="evenodd" d="M753.546 182.308C750.188 184.774 746.628 186.968 742.913 188.862C723.9 181.223 699.564 172.974 686.431 175.284C688.054 174.936 715.409 169.433 753.546 182.308Z" fill="#E3E7FE"/>
<path fill-rule="evenodd" clip-rule="evenodd" d="M778.231 88.2268C763.432 87.2192 732.91 82.3557 708.283 60.2328C694.724 48.0548 719.211 50.4429 753.443 57.68C764.221 65.5759 772.752 76.1408 778.231 88.2268Z" fill="#E3E7FE"/>
<path fill-rule="evenodd" clip-rule="evenodd" d="M716.517 196.817C709.435 197.616 702.121 197.441 694.738 196.172C678.143 193.319 663.703 185.37 652.75 174.204C666.129 175.071 693.024 179.111 716.517 196.817Z" fill="#E8F6FF"/>
<path fill-rule="evenodd" clip-rule="evenodd" d="M691.154 57.7817C688.699 57.5589 678.7 56.4302 671.027 52.119C674.995 49.9634 679.16 48.1517 683.476 46.713C686.267 52.056 689.324 57.1229 691.154 57.7817Z" fill="#E3E7FE"/>
<path fill-rule="evenodd" clip-rule="evenodd" d="M691.721 57.8252C691.552 57.8688 691.368 57.8494 691.165 57.7816C691.523 57.8106 691.721 57.8252 691.721 57.8252Z" fill="#E8F6FF"/>
<path d="M804.791 121.056C838.203 131.803 858.835 143.018 857.399 151.368C854.882 166.01 785.455 166.295 702.33 152.004C619.205 137.714 553.86 114.259 556.377 99.6171C557.851 91.0397 582.287 87.3892 618.986 88.7092" stroke="#ECEEFF" stroke-width="12.8716" stroke-linecap="round"/>
<mask id="mask4" mask-type="alpha" maskUnits="userSpaceOnUse" x="139" y="489" width="605" height="3">
<path fill-rule="evenodd" clip-rule="evenodd" d="M139.801 489.071H743.439V491.349H139.801V489.071Z" fill="white"/>
</mask>
<g mask="url(#mask4)">
<path opacity="0.3" fill-rule="evenodd" clip-rule="evenodd" d="M743.439 490.21C743.439 490.84 608.31 491.35 441.62 491.35C274.93 491.35 139.801 490.84 139.801 490.21C139.801 489.581 274.93 489.071 441.62 489.071C608.31 489.071 743.439 489.581 743.439 490.21Z" fill="#9088AF"/>
</g>
<path fill-rule="evenodd" clip-rule="evenodd" d="M288.52 290.86V201.285L234.475 290.86H288.52ZM281.915 333.463H183.431V299.963L283.717 135.378H328.755V290.86H359.681V333.463H328.755V389.902H281.915V333.463Z" fill="#2438B7"/>
<path fill-rule="evenodd" clip-rule="evenodd" d="M501.701 322.903C509.906 308.583 514.011 288.8 514.011 263.551C514.011 238.061 509.958 218.035 501.851 203.47C493.744 188.905 482.081 181.622 466.872 181.622C451.657 181.622 439.998 188.905 431.892 203.47C423.785 218.035 419.732 238.061 419.732 263.551C419.732 288.8 423.832 308.583 432.042 322.903C440.247 337.229 451.859 344.387 466.872 344.387C481.884 344.387 493.491 337.229 501.701 322.903ZM417.179 379.525C403.067 368.965 392.207 353.672 384.602 333.645C376.993 313.618 373.192 290.012 373.192 262.822C373.192 235.393 376.946 211.725 384.452 191.818C391.958 171.916 402.768 156.622 416.879 145.938C430.991 135.258 447.656 129.916 466.872 129.916C486.088 129.916 502.7 135.258 516.713 145.938C530.722 156.622 541.485 171.916 548.991 191.818C556.497 211.725 560.25 235.393 560.25 262.822C560.25 290.012 556.446 313.618 548.841 333.645C541.231 353.672 530.422 368.965 516.414 379.525C502.4 390.085 485.886 395.364 466.872 395.364C447.852 395.364 431.291 390.085 417.179 379.525Z" fill="#2438B7"/>
<path fill-rule="evenodd" clip-rule="evenodd" d="M678.847 290.86V201.285L624.801 290.86H678.847ZM672.242 333.463H573.758V299.963L674.043 135.378H719.081V290.86H750.007V333.463H719.081V389.902H672.242V333.463Z" fill="#2438B7"/>
<path fill-rule="evenodd" clip-rule="evenodd" d="M427.536 395.364H467.443V129.914H427.536V395.364Z" fill="#2438B7"/>
<path fill-rule="evenodd" clip-rule="evenodd" d="M288.52 290.86V201.285L234.475 290.86H288.52ZM281.915 333.463H183.431V299.963L283.717 135.378H328.755V290.86H359.681V333.463H328.755V389.902H281.915V333.463Z" fill="url(#paint2_linear)"/>
<path fill-rule="evenodd" clip-rule="evenodd" d="M678.847 290.86V201.285L624.801 290.86H678.847ZM672.242 333.463H573.758V299.963L674.043 135.378H719.081V290.86H750.007V333.463H719.081V389.902H672.242V333.463Z" fill="url(#paint3_linear)"/>
<path fill-rule="evenodd" clip-rule="evenodd" d="M680.404 389.902H719.081V333.463H680.404V389.902Z" fill="url(#paint4_linear)"/>
<path fill-rule="evenodd" clip-rule="evenodd" d="M290.073 389.902H328.75V333.463H290.073V389.902Z" fill="url(#paint5_linear)"/>
<mask id="mask5" mask-type="alpha" maskUnits="userSpaceOnUse" x="373" y="129" width="188" height="267">
<path fill-rule="evenodd" clip-rule="evenodd" d="M427.533 129.915V139.148C423.833 141.1 420.286 143.362 416.882 145.939C402.766 156.62 391.959 171.918 384.45 191.818C376.947 211.727 373.193 235.395 373.193 262.822C373.193 290.012 376.991 313.617 384.601 333.643C392.206 353.673 403.066 368.966 417.182 379.526C420.5 382.006 423.949 384.195 427.533 386.089V395.365H466.871C485.884 395.365 502.397 390.086 516.411 379.526C530.421 368.966 541.232 353.673 548.842 333.643C556.447 313.617 560.25 290.012 560.25 262.822C560.25 235.395 556.496 211.727 548.992 191.818C541.484 171.918 530.721 156.62 516.712 145.939C502.698 135.258 486.088 129.915 466.871 129.915H427.533Z" fill="white"/>
</mask>
<g mask="url(#mask5)">
<path fill-rule="evenodd" clip-rule="evenodd" d="M427.533 129.915V139.148C423.833 141.1 420.286 143.362 416.882 145.939C402.766 156.62 391.959 171.918 384.45 191.818C376.947 211.727 373.193 235.395 373.193 262.822C373.193 290.012 376.991 313.617 384.601 333.643C392.206 353.673 403.066 368.966 417.182 379.526C420.5 382.006 423.949 384.195 427.533 386.089V395.365H466.871C485.884 395.365 502.397 390.086 516.411 379.526C530.421 368.966 541.232 353.673 548.842 333.643C556.447 313.617 560.25 290.012 560.25 262.822C560.25 235.395 556.496 211.727 548.992 191.818C541.484 171.918 530.721 156.62 516.712 145.939C502.698 135.258 486.088 129.915 466.871 129.915H427.533Z" fill="url(#paint6_linear)"/>
</g>
<path fill-rule="evenodd" clip-rule="evenodd" d="M475.335 263.549C475.335 288.801 471.227 308.584 463.026 322.903C454.815 337.227 443.209 344.387 428.193 344.387C413.18 344.387 401.57 337.227 393.364 322.903C385.153 308.584 381.055 288.801 381.055 263.549C381.055 238.064 385.109 218.034 393.214 203.468C401.322 188.906 412.978 181.621 428.193 181.621C443.402 181.621 455.067 188.906 463.176 203.468C471.28 218.034 475.335 238.064 475.335 263.549Z" fill="#0D0D0F"/>
<path fill-rule="evenodd" clip-rule="evenodd" d="M424.207 199.611C422.443 199.611 421.014 203.121 421.014 207.45C421.014 203.121 419.585 199.611 417.822 199.611C419.585 199.611 421.014 196.101 421.014 191.771C421.014 196.101 422.443 199.611 424.207 199.611Z" fill="white"/>
<path fill-rule="evenodd" clip-rule="evenodd" d="M448.887 215.469C445.987 215.469 443.636 221.241 443.636 228.361C443.636 221.241 441.286 215.469 438.386 215.469C441.286 215.469 443.636 209.697 443.636 202.578C443.636 209.697 445.987 215.469 448.887 215.469Z" fill="white"/>
<path fill-rule="evenodd" clip-rule="evenodd" d="M416.471 248.028C414.312 248.028 412.563 252.324 412.563 257.622C412.563 252.324 410.813 248.028 408.656 248.028C410.813 248.028 412.563 243.733 412.563 238.435C412.563 243.733 414.312 248.028 416.471 248.028Z" fill="white"/>
<path fill-rule="evenodd" clip-rule="evenodd" d="M463.655 249.646C462.343 249.646 461.281 252.256 461.281 255.475C461.281 252.256 460.218 249.646 458.906 249.646C460.218 249.646 461.281 247.037 461.281 243.817C461.281 247.037 462.343 249.646 463.655 249.646Z" fill="white"/>
<path fill-rule="evenodd" clip-rule="evenodd" d="M439.203 306.564C436.631 306.564 434.547 311.681 434.547 317.993C434.547 311.681 432.463 306.564 429.892 306.564C432.463 306.564 434.547 301.447 434.547 295.134C434.547 301.447 436.631 306.564 439.203 306.564Z" fill="white"/>
<path fill-rule="evenodd" clip-rule="evenodd" d="M400.594 278.831C398.623 278.831 397.027 282.751 397.027 287.587C397.027 282.751 395.43 278.831 393.461 278.831C395.43 278.831 397.027 274.911 397.027 270.076C397.027 274.911 398.623 278.831 400.594 278.831Z" fill="white"/>
<path fill-rule="evenodd" clip-rule="evenodd" d="M249.843 290.86V201.285L195.797 290.86H249.843ZM243.237 333.463H144.754V299.963L245.039 135.378H290.077V290.86H321.003V333.463H290.077V389.902H243.237V333.463Z" fill="#5263D0"/>
<path fill-rule="evenodd" clip-rule="evenodd" d="M463.025 322.903C454.815 337.227 443.209 344.387 428.192 344.387C413.181 344.387 401.569 337.227 393.363 322.903C385.153 308.584 381.055 288.801 381.055 263.549C381.055 238.064 385.109 218.034 393.213 203.467C401.322 188.906 412.977 181.621 428.192 181.621C443.402 181.621 455.066 188.906 463.176 203.467C471.279 218.034 475.334 238.064 475.334 263.549C475.334 288.801 471.226 308.584 463.025 322.903ZM510.312 191.817C502.809 171.918 492.046 156.62 478.037 145.939C464.023 135.258 447.408 129.915 428.192 129.915C408.975 129.915 392.313 135.258 378.202 145.939C364.091 156.62 353.279 171.918 345.776 191.817C340.626 205.468 337.246 220.887 335.628 238.069C334.887 245.95 334.514 254.2 334.514 262.822C334.514 273.9 335.143 284.383 336.407 294.275C338.243 308.652 341.416 321.774 345.926 333.642C353.531 353.673 364.392 368.965 378.502 379.526C392.613 390.086 409.175 395.366 428.192 395.366C447.21 395.366 463.723 390.086 477.736 379.526C491.745 368.965 502.553 353.673 510.163 333.642C517.768 313.617 521.575 290.012 521.575 262.822C521.575 235.395 517.821 211.727 510.312 191.817Z" fill="#5263D0"/>
<path fill-rule="evenodd" clip-rule="evenodd" d="M640.17 290.86V201.285L586.124 290.86H640.17ZM633.564 333.463H535.081V299.963L635.366 135.378H680.404V290.86H711.33V333.463H680.404V389.902H633.564V333.463Z" fill="#5263D0"/>
<path fill-rule="evenodd" clip-rule="evenodd" d="M290.135 477.437L295.96 462.06L307.925 469.617L301.486 483.383L290.135 477.437Z" fill="#EF3C86"/>
<path fill-rule="evenodd" clip-rule="evenodd" d="M290.818 475.483L285.742 490.099L337.324 490.21C337.324 490.21 328.184 480.129 304.362 477.234L290.818 475.483Z" fill="#0B096F"/>
<path fill-rule="evenodd" clip-rule="evenodd" d="M326.523 310.078L321.103 390.122L287.56 472.281L310.156 474.995L347.164 401.808L362.86 318.466L326.523 310.078Z" fill="#131318"/>
<path fill-rule="evenodd" clip-rule="evenodd" d="M352.996 224.834L409.256 213.557C409.256 213.557 412.334 213.957 413.367 217.576C414.402 221.196 412.778 223.283 412.778 223.283L354.871 247.067L352.996 224.834Z" fill="#FF77CA"/>
<path fill-rule="evenodd" clip-rule="evenodd" d="M346.985 240.352L381.986 250.576L389.609 225.981L397.59 229.035L392.407 270.076L343.399 262.05L346.985 240.352Z" fill="#FF77CA"/>
<path fill-rule="evenodd" clip-rule="evenodd" d="M354.289 223.283L316.566 233.172L361.851 244.417L354.289 223.283Z" fill="#FE7A00"/>
<path d="M296.196 178.51L299.369 186.621L296.517 188.75L289.526 183.97" stroke="#0B096F" stroke-width="4.13729"/>
<path fill-rule="evenodd" clip-rule="evenodd" d="M342.788 177.255C342.788 177.255 358.403 189.037 343.918 197.318L342.788 177.255Z" fill="#0B096F"/>
<path fill-rule="evenodd" clip-rule="evenodd" d="M308.664 207.645C306.595 204.6 295.062 203.257 294.658 211.483C294.137 222.09 314.049 222.08 314.049 222.08L317.309 236.448L335.028 234.146L331.597 221.503C331.597 221.503 348.375 218.236 351.31 215.506C351.31 215.506 349.482 198.761 343.862 188.085L327.007 179.637L305.684 187.261L308.664 207.645Z" fill="#FF77CA"/>
<path fill-rule="evenodd" clip-rule="evenodd" d="M298.978 205.766C298.978 205.766 287.222 204.39 296.009 188.246C304.797 172.101 317.597 175.676 317.597 175.676C317.597 175.676 317.101 161.842 325.675 159.51C337.892 156.187 344.991 174.519 344.991 174.519C344.991 174.519 348.304 162.564 352.207 163.063C356.109 163.561 365.626 197.589 312.487 194.424C312.487 194.424 319.259 202.661 308.664 207.645C308.664 207.645 305.615 204.174 298.978 205.766Z" fill="#0B096F"/>
<path fill-rule="evenodd" clip-rule="evenodd" d="M332.764 213.64C332.072 212.088 334.12 209.701 337.194 209.329C341.75 208.777 344.802 212.133 343.208 214.587C341.682 216.936 338.676 214.549 336.12 215.02C334.73 215.276 333.29 214.821 332.764 213.64Z" fill="white"/>
<path fill-rule="evenodd" clip-rule="evenodd" d="M331.597 221.503L320.151 222.176L332.914 226.466L331.597 221.503Z" fill="#EF3C86"/>
<path fill-rule="evenodd" clip-rule="evenodd" d="M339.586 198.653L345.845 206.749L341.386 208.044L339.586 198.653Z" fill="#285FD7"/>
<path fill-rule="evenodd" clip-rule="evenodd" d="M366.596 242.251L354.694 224.417L361.322 244.417L366.596 242.251Z" fill="#EF3C86"/>
<path fill-rule="evenodd" clip-rule="evenodd" d="M367.15 265.94L363.442 245.159L362.6 265.195L367.15 265.94Z" fill="#EF3C86"/>
<path fill-rule="evenodd" clip-rule="evenodd" d="M335.852 199.806C336.415 200.974 335.924 202.376 334.756 202.938C333.589 203.501 332.186 203.01 331.624 201.843C331.061 200.675 331.552 199.272 332.72 198.71C333.887 198.148 335.29 198.638 335.852 199.806Z" fill="#0B096F"/>
<path fill-rule="evenodd" clip-rule="evenodd" d="M347.111 197.041C347.674 198.209 347.183 199.612 346.015 200.174C344.848 200.736 343.445 200.246 342.883 199.078C342.32 197.91 342.811 196.508 343.979 195.945C345.146 195.383 346.549 195.874 347.111 197.041Z" fill="#0B096F"/>
<path fill-rule="evenodd" clip-rule="evenodd" d="M326.176 313.829C326.176 313.829 289.027 258.983 316.566 233.172C322.979 227.161 363.596 241.509 363.596 241.509L362.238 273.791L354.289 272.143L369.606 296.185L377.943 317.513C377.943 317.513 356.602 312.697 332.754 314.012C331.111 314.102 326.176 313.829 326.176 313.829Z" fill="#FFC100"/>
<path fill-rule="evenodd" clip-rule="evenodd" d="M473.822 337.86L464.787 328.072L475.334 317.146L482.613 329.841L473.822 337.86Z" fill="#EF3C86"/>
<path fill-rule="evenodd" clip-rule="evenodd" d="M476.945 314.212L434.032 264.462C428.284 258.23 418.507 258.027 412.505 264.016L369.606 296.185C369.606 296.185 363.523 312.898 329.128 314.287C329.128 314.287 342.173 344.358 372.425 333.701C386.053 328.9 424.615 295.889 424.615 295.889L467.995 337.959L476.945 314.212Z" fill="#2D2D32"/>
<path d="M331.391 194.168L327.336 197.884" stroke="#0B096F" stroke-width="3.21789"/>
<path d="M342.265 191.704L348.906 192.771" stroke="#0B096F" stroke-width="3.21789"/>
<path fill-rule="evenodd" clip-rule="evenodd" d="M473.822 337.86L482.613 347.09L491.973 297.122C491.973 297.122 485.144 306.564 479.045 321.682L473.822 337.86Z" fill="#0B096F"/>
<path fill-rule="evenodd" clip-rule="evenodd" d="M354.289 272.143L335.226 267.344L358.774 279.182L354.289 272.143Z" fill="#FE7A00"/>
<path fill-rule="evenodd" clip-rule="evenodd" d="M398.528 214.197C398.208 214.568 397.816 215.739 397.816 215.739C397.816 215.739 393.244 219.299 389.991 224.904C386.739 230.509 396.583 232.675 396.583 232.675C396.583 232.675 399.621 233.22 400.491 232.473C401.362 231.725 402.434 232.093 403.067 231.691C403.7 231.289 404.181 229.178 405.804 228.264C407.427 227.35 406.326 224.113 405.622 223.565C404.918 223.016 400.633 221.651 401.645 218.247C402.553 215.195 400.235 212.214 398.528 214.197Z" fill="#FF77CA"/>
<path d="M387.817 233.794L390.236 225.703C390.236 225.703 390.239 220.795 398.422 215.843" stroke="#EF3C86" stroke-width="1.3791"/>
<path d="M401.511 215.109C401.511 215.109 402.225 216.197 401.511 218.904C400.797 221.611 404.63 222.61 405.622 223.565C406.614 224.519 406.592 225.824 406.592 225.824" stroke="#EF3C86" stroke-width="1.3791"/>
<path d="M397.089 233.028L397.59 228.626" stroke="#EF3C86" stroke-width="1.3791"/>
<defs>
<linearGradient id="paint0_linear" x1="151.505" y1="253.919" x2="254.266" y2="421.298" gradientUnits="userSpaceOnUse">
<stop stop-color="#D4EEFF"/>
<stop offset="1" stop-color="#D4EEFF"/>
</linearGradient>
<linearGradient id="paint1_linear" x1="326.513" y1="238.447" x2="411.466" y2="377.751" gradientUnits="userSpaceOnUse">
<stop stop-color="#D4EEFF"/>
<stop offset="1" stop-color="#D4EEFF"/>
</linearGradient>
<linearGradient id="paint2_linear" x1="327.81" y1="372.468" x2="319.601" y2="218.533" gradientUnits="userSpaceOnUse">
<stop stop-color="#251586"/>
<stop offset="1" stop-color="#3924B6"/>
</linearGradient>
<linearGradient id="paint3_linear" x1="718.137" y1="372.468" x2="709.928" y2="218.533" gradientUnits="userSpaceOnUse">
<stop stop-color="#251586"/>
<stop offset="1" stop-color="#3924B6"/>
</linearGradient>
<linearGradient id="paint4_linear" x1="682.253" y1="318.197" x2="680.16" y2="371.498" gradientUnits="userSpaceOnUse">
<stop stop-color="#151686"/>
<stop offset="1" stop-color="#2438B6"/>
</linearGradient>
<linearGradient id="paint5_linear" x1="291.922" y1="318.197" x2="289.829" y2="371.498" gradientUnits="userSpaceOnUse">
<stop stop-color="#151686"/>
<stop offset="1" stop-color="#2438B6"/>
</linearGradient>
<linearGradient id="paint6_linear" x1="526.425" y1="377.183" x2="518.011" y2="216.624" gradientUnits="userSpaceOnUse">
<stop stop-color="#251586"/>
<stop offset="1" stop-color="#3924B6"/>
</linearGradient>
</defs>
</svg>
